<?xml version="1.0" encoding="UTF-8"?>
<svg id="Layer_1" data-name="Layer 1" xmlns="http://www.w3.org/2000/svg" viewBox="0 0 56 51">
  <defs>
    <style>
      .cls-1 {
        fill: #fff;
      }
    </style>
  </defs>
  <path class="cls-1" d="M18.18,11.77c2.22,1.27,3.77,2.39,5.48,3.07,2.64,1.05,3.31,2.86,3.19,5.56-.06,1.53-1.16,4.44,1.26,4.42,2.36-.02,.99-2.9,1.35-4.49,.31-1.38-.72-3.15,.87-4.14,2.38-1.49,4.87-2.8,7.73-4.43,0,6.17,0,11.74,0,17.31,0,.9-.07,2.07,1.04,2.18,1.31,.13,1.52-1.08,1.52-2.1,.03-6.09,.05-12.18,0-18.27-.02-2.13-.93-3-3.01-1.76-1.95,1.17-4.02,2.16-5.89,3.45-2.33,1.61-4.41,2.14-6.89,.17-1.69-1.34-3.72-2.24-5.64-3.27-2.86-1.54-3.59-1.09-3.61,2.3-.04,4.39-.01,8.79,0,13.18,0,1.6-.01,3.2,.07,4.79,.04,.85,.44,1.64,1.43,1.54,.81-.08,1.05-.81,1.07-1.56,.02-.8,.02-1.6,.02-2.4,0-4.97,0-9.95,0-15.57Zm9.97,27.61c-4.71,0-9.19-.76-13.24-3.45-2.93-1.94-4.8-5.77-2.1-9.16,.57-.71,1.15-1.68,.17-2.34-.92-.61-1.61,.24-2.2,.95-2.96,3.58-2.35,8.22,1.51,11.66,3.26,2.91,7.28,3.97,11.4,4.55,7.15,1,14.03,.17,19.99-4.37,4.12-3.14,4.81-8.31,1.81-11.81-.57-.67-1.16-1.62-2.18-1-1.11,.67-.39,1.53,.04,2.31,2.32,4.18,1.61,6.98-2.41,9.51-3.91,2.47-8.26,3.14-12.77,3.15Z"/>
</svg>